<?xml version="1.0" standalone="no"?>
<!DOCTYPE svg PUBLIC "-//W3C//DTD SVG 20010904//EN"
 "http://www.w3.org/TR/2001/REC-SVG-20010904/DTD/svg10.dtd">
<svg version="1.0" xmlns="http://www.w3.org/2000/svg"
 width="700.000000pt" height="700.000000pt" viewBox="0 0 700.000000 700.000000"
 preserveAspectRatio="xMidYMid meet">
<metadata>
Created by potrace 1.14, written by Peter Selinger 2001-2017
</metadata>
<g transform="translate(0.000000,700.000000) scale(0.100000,-0.100000)"
fill="#000000" stroke="none">
<path d="M3410 6984 c-99 -27 -202 -96 -264 -177 -20 -26 -277 -464 -374 -637
-14 -25 -87 -152 -164 -284 -76 -131 -138 -241 -138 -244 0 -3 -6 -13 -14 -21
-8 -9 -26 -38 -41 -66 -14 -27 -36 -66 -47 -85 -11 -19 -47 -82 -81 -140 -33
-58 -99 -172 -147 -255 -239 -414 -434 -752 -450 -779 -10 -17 -59 -103 -110
-191 -51 -88 -103 -178 -116 -201 -12 -22 -129 -224 -260 -450 -130 -225 -247
-427 -260 -449 -12 -22 -76 -134 -143 -249 l-120 -209 81 -49 c45 -26 82 -48
83 -48 1 0 108 -61 236 -136 129 -75 258 -149 288 -166 29 -16 76 -43 102 -59
l49 -29 1468 731 c807 402 1529 762 1605 800 75 38 139 69 142 69 3 0 -6 -18
-20 -40 -14 -22 -25 -42 -25 -45 0 -3 -11 -22 -23 -43 -28 -44 -222 -379 -652
-1127 -54 -93 -101 -174 -105 -180 -4 -5 -19 -30 -32 -55 -24 -44 -237 -413
-274 -477 -11 -17 -35 -57 -54 -90 -19 -32 -34 -60 -35 -63 0 -3 -8 -16 -17
-30 -15 -23 -237 -409 -262 -455 -6 -11 -16 -27 -22 -35 -7 -8 -25 -39 -40
-68 -16 -29 -33 -61 -39 -70 -133 -225 -149 -271 -148 -402 0 -113 23 -182 89
-276 63 -90 156 -156 259 -185 76 -21 228 -17 293 9 135 53 211 123 294 272
54 97 365 634 445 768 24 40 43 74 43 76 0 4 184 321 200 346 6 8 13 22 17 30
4 8 28 51 54 95 26 44 106 184 179 310 73 127 165 286 205 355 40 69 198 343
352 610 430 744 579 1002 602 1040 11 19 24 42 28 50 4 8 20 38 37 65 66 112
235 409 233 411 -1 1 -190 110 -419 243 l-417 241 -1546 -770 c-849 -424
-1548 -771 -1552 -771 -5 -1 -19 -9 -33 -18 -28 -19 -81 -43 -85 -39 -1 2 55
102 126 223 71 121 135 231 142 245 7 14 82 144 167 290 84 146 162 281 173
300 11 19 43 76 72 125 29 50 62 106 72 125 21 37 149 259 321 555 58 99 116
200 130 225 14 25 75 131 135 235 203 351 362 630 374 655 26 56 40 130 38
206 -6 212 -144 393 -348 456 -56 17 -198 18 -257 2z"/>
</g>
</svg>
